<svg width="187" height="47" viewBox="0 0 187 47" fill="none" xmlns="http://www.w3.org/2000/svg">
<path d="M176.229 22.8891C176.323 22.9274 176.386 22.9809 176.425 23.041L176.929 22.8016C177.103 23.0697 177.058 23.4214 176.813 23.7029L176.367 23.4939C176.312 23.557 176.235 23.615 176.13 23.6597L175.128 24.0865L175.337 24.4636L173.332 25.3173L173.123 24.9403L171.118 25.794L171.327 26.171L169.322 27.0247L169.113 26.6477L167.108 27.5014L167.317 27.8784L165.312 28.7322L165.103 28.3551L163.098 29.2088L163.307 29.5859L161.303 30.4396L161.093 30.0626L159.088 30.9163L159.298 31.2933L157.293 32.147L157.083 31.77L155.078 32.6237L155.288 33.0007L153.283 33.8545L153.073 33.4774L151.068 34.3312L151.278 34.7082L149.273 35.5619L149.063 35.1849L147.058 36.0386L147.268 36.4156L145.263 37.2693L145.054 36.8923L144.051 37.3192C143.96 37.358 143.87 37.3763 143.786 37.3789L143.73 37.8148C143.365 37.8262 143.037 37.693 142.862 37.4624L143.351 37.2021C143.311 37.149 143.286 37.0843 143.285 37.008L143.274 36.1693L142.718 36.2351L142.696 34.5579L143.252 34.4921L143.23 32.8148L142.674 32.8806L142.652 31.2034L143.208 31.1376L143.186 29.4603L142.63 29.5261L142.608 27.8488L143.164 27.783L143.143 26.1058L142.586 26.1716L142.564 24.4943L143.121 24.4285L143.099 22.7512L142.542 22.817L142.52 21.1398L143.077 21.074L143.055 19.3967L142.498 19.4625L142.476 17.7853L143.033 17.7195L143.011 16.0422L142.454 16.108L142.433 14.4307L142.989 14.3649L142.967 12.6877L142.411 12.7535L142.389 11.0762L142.945 11.0104L142.934 10.1718C142.933 10.084 142.962 10.0064 143.009 9.93999L142.53 9.77313C142.738 9.4768 143.132 9.26717 143.541 9.23585L143.517 9.67004C143.609 9.66302 143.705 9.67409 143.799 9.7124L144.7 10.0784L145.008 9.68483L146.81 10.4169L146.501 10.8105L148.303 11.5425L148.611 11.1489L150.413 11.8809L150.105 12.2745L151.906 13.0066L152.215 12.613L154.016 13.345L153.708 13.7386L155.51 14.4706L155.818 14.0771L157.62 14.8091L157.311 15.2027L159.113 15.9347L159.421 15.5411L161.223 16.2732L160.915 16.6668L162.716 17.3988L163.025 17.0052L164.826 17.7372L164.518 18.1308L166.32 18.8629L166.628 18.4693L168.43 19.2013L168.121 19.5949L169.923 20.3269L170.231 19.9334L172.033 20.6654L171.725 21.059L173.526 21.791L173.835 21.3974L175.636 22.1295L175.328 22.5231L176.229 22.8891Z" stroke="#FEFEFE" stroke-dasharray="2 2"/>
<path d="M1 23C57.1513 41.0415 87.8207 40.2785 141.334 23" stroke="#FEFEFE" stroke-dasharray="2 2"/>
</svg>
