<svg width="39" height="39" viewBox="0 0 39 39" fill="none" xmlns="http://www.w3.org/2000/svg">
<path d="M24.1299 26.7608L24.4303 26.9298L24.6951 26.7091C26.0986 25.5395 27.4517 24.875 29.25 24.875C33.1176 24.875 36.0625 27.8199 36.0625 31.6875C36.0625 35.5551 33.1176 38.5 29.25 38.5C25.3824 38.5 22.4375 35.5551 22.4375 31.6875V30.4688V30.1713L22.176 30.0293L13.6448 25.3981L13.4157 25.2737L13.1826 25.3903C12.2359 25.8636 11.0992 26.3125 9.75 26.3125C6.12614 26.3125 2.9375 23.1239 2.9375 19.5C2.9375 15.6432 6.11524 12.6875 9.75 12.6875C11.0992 12.6875 12.2359 13.1364 13.1826 13.6097L13.4157 13.7263L13.6448 13.6019L22.176 8.97068L22.4375 8.82874V8.53125V7.3125C22.4375 3.44489 25.3824 0.5 29.25 0.5C33.1176 0.5 36.0625 3.44489 36.0625 7.3125C36.0625 11.1801 33.1176 14.125 29.25 14.125C27.4517 14.125 26.0986 13.4605 24.6951 12.2909L24.4303 12.0702L24.1299 12.2392L16.3299 16.6267L15.9701 16.8291L16.1007 17.2206C16.3398 17.938 16.5625 18.8511 16.5625 19.5C16.5625 20.1489 16.3398 21.062 16.1007 21.7794L15.9701 22.1709L16.3299 22.3733L24.1299 26.7608Z" stroke="white"/>
</svg>
