<svg width="50" height="50" viewBox="0 0 50 50" fill="none" xmlns="http://www.w3.org/2000/svg">
<path d="M42.0874 38.6562C39.8686 35.0812 34.9842 31.25 24.9999 31.25C15.0155 31.25 10.1342 35.0781 7.91235 38.6562C9.95949 41.2226 12.559 43.2944 15.5174 44.7173C18.4758 46.1402 21.717 46.8778 24.9999 46.875C28.2827 46.8778 31.5239 46.1402 34.4823 44.7173C37.4407 43.2944 40.0402 41.2226 42.0874 38.6562V38.6562Z" fill="black"/>
<path fill-rule="evenodd" clip-rule="evenodd" d="M25 28.125C27.4864 28.125 29.871 27.1373 31.6291 25.3791C33.3873 23.621 34.375 21.2364 34.375 18.75C34.375 16.2636 33.3873 13.879 31.6291 12.1209C29.871 10.3627 27.4864 9.375 25 9.375C22.5136 9.375 20.129 10.3627 18.3709 12.1209C16.6127 13.879 15.625 16.2636 15.625 18.75C15.625 21.2364 16.6127 23.621 18.3709 25.3791C20.129 27.1373 22.5136 28.125 25 28.125V28.125Z" fill="black"/>
<path fill-rule="evenodd" clip-rule="evenodd" d="M25 3.125C19.1984 3.125 13.6344 5.42968 9.53204 9.53204C5.42968 13.6344 3.125 19.1984 3.125 25C3.125 30.8016 5.42968 36.3656 9.53204 40.468C13.6344 44.5703 19.1984 46.875 25 46.875C30.8016 46.875 36.3656 44.5703 40.468 40.468C44.5703 36.3656 46.875 30.8016 46.875 25C46.875 19.1984 44.5703 13.6344 40.468 9.53204C36.3656 5.42968 30.8016 3.125 25 3.125V3.125ZM0 25C0 18.3696 2.63392 12.0107 7.32233 7.32233C12.0107 2.63392 18.3696 0 25 0C31.6304 0 37.9893 2.63392 42.6777 7.32233C47.3661 12.0107 50 18.3696 50 25C50 31.6304 47.3661 37.9893 42.6777 42.6777C37.9893 47.3661 31.6304 50 25 50C18.3696 50 12.0107 47.3661 7.32233 42.6777C2.63392 37.9893 0 31.6304 0 25V25Z" fill="black"/>
</svg>
