<svg width="50" height="50" viewBox="0 0 50 50" fill="none" xmlns="http://www.w3.org/2000/svg">
<path d="M34.7349 29.6667C34.6729 29.8413 34.5949 30.047 34.4993 30.2764C34.1853 31.0301 33.6835 32.0331 32.9333 33.0333C31.439 35.0257 28.9702 37 24.9999 37C21.0297 37 18.5608 35.0257 17.0666 33.0333C16.3164 32.0331 15.8146 31.0301 15.5005 30.2764C15.4049 30.047 15.327 29.8413 15.265 29.6667H34.7349Z" stroke="white"/>
<path d="M45.3334 25C45.3334 36.2113 36.2114 45.3333 25.0001 45.3333C13.7887 45.3333 4.66675 36.2113 4.66675 25C4.66675 13.7886 13.7887 4.66666 25.0001 4.66666C36.2114 4.66666 45.3334 13.7886 45.3334 25ZM42.1667 25C42.1667 15.5343 34.4658 7.83332 25.0001 7.83332C15.5344 7.83332 7.83341 15.5343 7.83341 25C7.83341 34.4657 15.5344 42.1667 25.0001 42.1667C34.4658 42.1667 42.1667 34.4657 42.1667 25Z" stroke="white"/>
<path d="M21.6958 21.6305L17.7758 25.6136L13.7968 21.6938L13.7961 21.6932C12.7484 20.6647 12.7344 19.0431 13.764 17.9889L13.7654 17.9875C14.2345 17.5033 14.8734 17.2202 15.5472 17.1981C16.2211 17.1759 16.8772 17.4164 17.3771 17.8687L17.7172 18.1764L18.0531 17.864C18.5458 17.4057 19.1968 17.1559 19.8696 17.167C20.5424 17.1781 21.1849 17.4491 21.6622 17.9234L21.6622 17.9235L21.6672 17.9283C21.9148 18.1676 22.1123 18.4538 22.2481 18.7703C22.384 19.0867 22.4555 19.427 22.4584 19.7714C22.4613 20.1157 22.3956 20.4572 22.2652 20.7759C22.1347 21.0946 21.9421 21.3842 21.6986 21.6277L21.6958 21.6305ZM36.2819 21.6277L36.2791 21.6305L32.3592 25.6136L28.378 21.6917L28.3774 21.6911C27.3296 20.6626 27.3157 19.041 28.3453 17.9869L28.3466 17.9854C28.8161 17.501 29.4554 17.2179 30.1297 17.1961C30.8039 17.1742 31.4603 17.4153 31.9601 17.8684L32.3002 18.1767L32.6364 17.864C33.1291 17.4057 33.7801 17.1559 34.453 17.167C35.1258 17.1781 35.7682 17.4491 36.2456 17.9234L36.2455 17.9235L36.2505 17.9283C36.4981 18.1676 36.6956 18.4538 36.8315 18.7703C36.9673 19.0867 37.0388 19.427 37.0417 19.7714C37.0446 20.1157 36.979 20.4572 36.8485 20.7759C36.7181 21.0946 36.5255 21.3842 36.2819 21.6277Z" stroke="white"/>
</svg>
