<svg width="200" height="200" viewBox="0 0 200 200" fill="none" xmlns="http://www.w3.org/2000/svg">
<rect width="200" height="200" rx="100" fill="white"/>
<path d="M67.0816 67.3777H147.359L133.81 105.651H79.6143L67.0816 67.3777Z" fill="#565154"/>
<path d="M67.0816 67.3777L63.2749 68.6062C63.2767 68.6116 63.2784 68.617 63.2802 68.6224L67.0816 67.3777ZM147.359 67.3777L151.129 68.7125C151.563 67.4881 151.375 66.1296 150.625 65.0689C149.876 64.0083 148.658 63.3777 147.359 63.3777V67.3777ZM133.81 105.651V109.651C135.504 109.651 137.015 108.583 137.581 106.986L133.81 105.651ZM79.6143 105.651L75.8129 106.896C76.3512 108.539 77.8848 109.651 79.6143 109.651V105.651ZM62.3395 52.6835L66.1462 51.455C65.673 49.9887 64.3997 48.9246 62.8728 48.7192L62.3395 52.6835ZM57.7919 48.0357C55.6025 47.7412 53.5889 49.2773 53.2944 51.4667C52.9999 53.6562 54.536 55.6698 56.7254 55.9643L57.7919 48.0357ZM67.0816 71.3777H147.359V63.3777H67.0816V71.3777ZM143.588 66.0428L130.039 104.316L137.581 106.986L151.129 68.7125L143.588 66.0428ZM133.81 101.651H79.6143V109.651H133.81V101.651ZM83.4157 104.406L70.883 66.1329L63.2802 68.6224L75.8129 106.896L83.4157 104.406ZM70.8883 66.1492L66.1462 51.455L58.5328 53.9119L63.2749 68.6062L70.8883 66.1492ZM62.8728 48.7192L57.7919 48.0357L56.7254 55.9643L61.8062 56.6477L62.8728 48.7192Z" fill="#565154"/>
<ellipse cx="86.0501" cy="116.302" rx="5.08083" ry="5.1284" fill="#513ADD"/>
<ellipse cx="127.374" cy="116.302" rx="5.08083" ry="5.1284" fill="#513ADD"/>
<path d="M62.6782 67.7797C62.6782 66.0367 64.0912 64.6238 65.8342 64.6238H83.9103C85.6533 64.6238 87.0662 66.0367 87.0662 67.7797C87.0662 69.5227 85.6533 70.9357 83.9103 70.9357H65.8342C64.0912 70.9357 62.6782 69.5227 62.6782 67.7797Z" fill="#513ADD"/>
<path d="M57.2587 80.4034C57.2587 78.6605 58.6716 77.2475 60.4146 77.2475H74.4261C76.169 77.2475 77.582 78.6605 77.582 80.4034C77.582 82.1464 76.169 83.5594 74.4261 83.5594H60.4146C58.6716 83.5594 57.2587 82.1464 57.2587 80.4034Z" fill="#513ADD"/>
<path d="M82.3241 86.7153C82.3241 84.9723 83.7371 83.5594 85.48 83.5594H89.3298C91.0728 83.5594 92.4858 84.9723 92.4858 86.7153C92.4858 88.4583 91.0728 89.8713 89.3298 89.8713H85.48C83.7371 89.8713 82.3241 88.4583 82.3241 86.7153Z" fill="white"/>
<path d="M53.8715 93.0272C53.8715 91.2842 55.2844 89.8713 57.0274 89.8713H57.49C59.2329 89.8713 60.6459 91.2842 60.6459 93.0272C60.6459 94.7702 59.2329 96.1832 57.49 96.1832H57.0274C55.2844 96.1832 53.8715 94.7702 53.8715 93.0272Z" fill="#513ADD"/>
<path d="M50.4843 67.7797C50.4843 66.0367 51.8972 64.6238 53.6402 64.6238H54.1028C55.8457 64.6238 57.2587 66.0367 57.2587 67.7797C57.2587 69.5227 55.8457 70.9357 54.1028 70.9357H53.6402C51.8972 70.9357 50.4843 69.5227 50.4843 67.7797Z" fill="#513ADD"/>
<path d="M41 80.4034C41 78.6605 42.413 77.2475 44.1559 77.2475H50.7155C52.4585 77.2475 53.8714 78.6605 53.8714 80.4034C53.8714 82.1464 52.4585 83.5594 50.7155 83.5594H44.1559C42.413 83.5594 41 82.1464 41 80.4034Z" fill="#513ADD"/>
<path d="M57.9361 105.651C57.9361 103.908 59.3491 102.495 61.092 102.495H64.2644C66.0074 102.495 67.4203 103.908 67.4203 105.651C67.4203 107.394 66.0074 108.807 64.2644 108.807H61.092C59.3491 108.807 57.9361 107.394 57.9361 105.651Z" fill="#513ADD"/>
<path d="M59.291 74.0916C59.291 72.3486 60.704 70.9357 62.447 70.9357H81.2005C82.9435 70.9357 84.3565 72.3486 84.3565 74.0916C84.3565 75.8346 82.9435 77.2475 81.2005 77.2475H62.447C60.704 77.2475 59.291 75.8346 59.291 74.0916Z" fill="white"/>
<path d="M66.7429 93.0272C66.7429 91.2842 68.1559 89.8713 69.8989 89.8713H87.975C89.718 89.8713 91.1309 91.2842 91.1309 93.0272C91.1309 94.7702 89.718 96.1832 87.975 96.1832H69.8989C68.1559 96.1832 66.7429 94.7702 66.7429 93.0272Z" fill="#513ADD"/>
<path d="M71.485 105.651C71.485 103.908 72.8979 102.495 74.6409 102.495H81.8779C83.6209 102.495 85.0339 103.908 85.0339 105.651C85.0339 107.394 83.6209 108.807 81.8779 108.807H74.6409C72.8979 108.807 71.485 107.394 71.485 105.651Z" fill="#513ADD"/>
<path d="M47.097 86.7153C47.097 84.9723 48.5099 83.5594 50.2529 83.5594H74.426C76.169 83.5594 77.582 84.9723 77.582 86.7153C77.582 88.4583 76.169 89.8713 74.426 89.8713H50.2529C48.5099 89.8713 47.097 88.4583 47.097 86.7153Z" fill="white"/>
<path d="M64.0331 99.3391C64.0331 97.5961 65.4461 96.1832 67.1891 96.1832H81.2005C82.9435 96.1832 84.3565 97.5961 84.3565 99.3391C84.3565 101.082 82.9435 102.495 81.2005 102.495H67.1891C65.4461 102.495 64.0331 101.082 64.0331 99.3391Z" fill="white"/>
<path d="M60.95 126.6V142H57.386V135.686H50.39V142H46.826V126.6H50.39V132.672H57.386V126.6H60.95ZM70.4236 142.176C69.1769 142.176 68.0549 141.919 67.0576 141.406C66.0749 140.878 65.3049 140.152 64.7476 139.228C64.1902 138.304 63.9116 137.255 63.9116 136.082C63.9116 134.909 64.1902 133.86 64.7476 132.936C65.3049 132.012 66.0749 131.293 67.0576 130.78C68.0549 130.252 69.1769 129.988 70.4236 129.988C71.6702 129.988 72.7849 130.252 73.7676 130.78C74.7502 131.293 75.5202 132.012 76.0776 132.936C76.6349 133.86 76.9136 134.909 76.9136 136.082C76.9136 137.255 76.6349 138.304 76.0776 139.228C75.5202 140.152 74.7502 140.878 73.7676 141.406C72.7849 141.919 71.6702 142.176 70.4236 142.176ZM70.4236 139.36C71.3036 139.36 72.0222 139.067 72.5796 138.48C73.1516 137.879 73.4376 137.079 73.4376 136.082C73.4376 135.085 73.1516 134.293 72.5796 133.706C72.0222 133.105 71.3036 132.804 70.4236 132.804C69.5436 132.804 68.8176 133.105 68.2456 133.706C67.6736 134.293 67.3876 135.085 67.3876 136.082C67.3876 137.079 67.6736 137.879 68.2456 138.48C68.8176 139.067 69.5436 139.36 70.4236 139.36ZM86.6436 129.988C87.7436 129.988 88.7409 130.245 89.6356 130.758C90.5449 131.257 91.2563 131.968 91.7696 132.892C92.2829 133.801 92.5396 134.865 92.5396 136.082C92.5396 137.299 92.2829 138.37 91.7696 139.294C91.2563 140.203 90.5449 140.915 89.6356 141.428C88.7409 141.927 87.7436 142.176 86.6436 142.176C85.1329 142.176 83.9449 141.699 83.0796 140.746V146.268H79.6476V130.164H82.9256V131.528C83.7763 130.501 85.0156 129.988 86.6436 129.988ZM86.0496 139.36C86.9296 139.36 87.6483 139.067 88.2056 138.48C88.7776 137.879 89.0636 137.079 89.0636 136.082C89.0636 135.085 88.7776 134.293 88.2056 133.706C87.6483 133.105 86.9296 132.804 86.0496 132.804C85.1696 132.804 84.4436 133.105 83.8716 133.706C83.3143 134.293 83.0356 135.085 83.0356 136.082C83.0356 137.079 83.3143 137.879 83.8716 138.48C84.4436 139.067 85.1696 139.36 86.0496 139.36ZM107.25 142.264C106.032 142.264 104.852 142.103 103.708 141.78C102.578 141.443 101.669 141.01 100.98 140.482L102.19 137.798C102.85 138.282 103.634 138.671 104.544 138.964C105.453 139.257 106.362 139.404 107.272 139.404C108.284 139.404 109.032 139.257 109.516 138.964C110 138.656 110.242 138.253 110.242 137.754C110.242 137.387 110.095 137.087 109.802 136.852C109.523 136.603 109.156 136.405 108.702 136.258C108.262 136.111 107.66 135.95 106.898 135.774C105.724 135.495 104.764 135.217 104.016 134.938C103.268 134.659 102.622 134.212 102.08 133.596C101.552 132.98 101.288 132.159 101.288 131.132C101.288 130.237 101.53 129.431 102.014 128.712C102.498 127.979 103.224 127.399 104.192 126.974C105.174 126.549 106.37 126.336 107.778 126.336C108.76 126.336 109.721 126.453 110.66 126.688C111.598 126.923 112.42 127.26 113.124 127.7L112.024 130.406C110.601 129.599 109.178 129.196 107.756 129.196C106.758 129.196 106.018 129.357 105.534 129.68C105.064 130.003 104.83 130.428 104.83 130.956C104.83 131.484 105.101 131.88 105.644 132.144C106.201 132.393 107.044 132.643 108.174 132.892C109.347 133.171 110.308 133.449 111.056 133.728C111.804 134.007 112.442 134.447 112.97 135.048C113.512 135.649 113.784 136.463 113.784 137.49C113.784 138.37 113.534 139.177 113.036 139.91C112.552 140.629 111.818 141.201 110.836 141.626C109.853 142.051 108.658 142.264 107.25 142.264ZM126.163 139.36V142H115.603V139.932L121.631 132.804H115.757V130.164H125.965V132.232L119.937 139.36H126.163ZM134.284 142.176C133.037 142.176 131.915 141.919 130.918 141.406C129.935 140.878 129.165 140.152 128.608 139.228C128.05 138.304 127.772 137.255 127.772 136.082C127.772 134.909 128.05 133.86 128.608 132.936C129.165 132.012 129.935 131.293 130.918 130.78C131.915 130.252 133.037 129.988 134.284 129.988C135.53 129.988 136.645 130.252 137.628 130.78C138.61 131.293 139.38 132.012 139.938 132.936C140.495 133.86 140.774 134.909 140.774 136.082C140.774 137.255 140.495 138.304 139.938 139.228C139.38 140.152 138.61 140.878 137.628 141.406C136.645 141.919 135.53 142.176 134.284 142.176ZM134.284 139.36C135.164 139.36 135.882 139.067 136.44 138.48C137.012 137.879 137.298 137.079 137.298 136.082C137.298 135.085 137.012 134.293 136.44 133.706C135.882 133.105 135.164 132.804 134.284 132.804C133.404 132.804 132.678 133.105 132.106 133.706C131.534 134.293 131.248 135.085 131.248 136.082C131.248 137.079 131.534 137.879 132.106 138.48C132.678 139.067 133.404 139.36 134.284 139.36ZM150.504 129.988C151.604 129.988 152.601 130.245 153.496 130.758C154.405 131.257 155.116 131.968 155.63 132.892C156.143 133.801 156.4 134.865 156.4 136.082C156.4 137.299 156.143 138.37 155.63 139.294C155.116 140.203 154.405 140.915 153.496 141.428C152.601 141.927 151.604 142.176 150.504 142.176C148.993 142.176 147.805 141.699 146.94 140.746V146.268H143.508V130.164H146.786V131.528C147.636 130.501 148.876 129.988 150.504 129.988ZM149.91 139.36C150.79 139.36 151.508 139.067 152.066 138.48C152.638 137.879 152.924 137.079 152.924 136.082C152.924 135.085 152.638 134.293 152.066 133.706C151.508 133.105 150.79 132.804 149.91 132.804C149.03 132.804 148.304 133.105 147.732 133.706C147.174 134.293 146.896 135.085 146.896 136.082C146.896 137.079 147.174 137.879 147.732 138.48C148.304 139.067 149.03 139.36 149.91 139.36Z" fill="black"/>
</svg>
