<svg width="130" height="90" viewBox="0 0 130 90" fill="none" xmlns="http://www.w3.org/2000/svg">
<rect width="130" height="90" fill="white"/>
<path d="M38.0816 25.3777H118.359L104.81 63.651H50.6143L38.0816 25.3777Z" fill="#565154"/>
<path d="M38.0816 25.3777L34.2749 26.6062C34.2767 26.6116 34.2785 26.617 34.2802 26.6224L38.0816 25.3777ZM118.359 25.3777L122.129 26.7125C122.563 25.4881 122.375 24.1296 121.625 23.0689C120.876 22.0083 119.658 21.3777 118.359 21.3777V25.3777ZM104.81 63.651V67.651C106.504 67.651 108.015 66.5832 108.581 64.9858L104.81 63.651ZM50.6143 63.651L46.813 64.8957C47.3512 66.5394 48.8848 67.651 50.6143 67.651V63.651ZM33.3395 10.6835L37.1462 9.45496C36.673 7.9887 35.3997 6.92456 33.8728 6.71916L33.3395 10.6835ZM28.7919 6.03571C26.6025 5.74119 24.5889 7.27732 24.2944 9.46674C23.9999 11.6562 25.536 13.6698 27.7254 13.9643L28.7919 6.03571ZM38.0816 29.3777H118.359V21.3777H38.0816V29.3777ZM114.588 24.0428L101.039 62.3161L108.581 64.9858L122.129 26.7125L114.588 24.0428ZM104.81 59.651H50.6143V67.651H104.81V59.651ZM54.4157 62.4062L41.883 24.1329L34.2802 26.6224L46.813 64.8957L54.4157 62.4062ZM41.8883 24.1492L37.1462 9.45496L29.5328 11.9119L34.2749 26.6062L41.8883 24.1492ZM33.8728 6.71916L28.7919 6.03571L27.7254 13.9643L32.8063 14.6477L33.8728 6.71916Z" fill="#565154"/>
<ellipse cx="57.0501" cy="74.3023" rx="5.08083" ry="5.1284" fill="#513ADD"/>
<ellipse cx="98.3742" cy="74.3023" rx="5.08083" ry="5.1284" fill="#513ADD"/>
<path d="M33.6782 25.7797C33.6782 24.0367 35.0912 22.6238 36.8342 22.6238H54.9103C56.6533 22.6238 58.0662 24.0367 58.0662 25.7797V25.7797C58.0662 27.5227 56.6533 28.9357 54.9103 28.9357H36.8342C35.0912 28.9357 33.6782 27.5227 33.6782 25.7797V25.7797Z" fill="#513ADD"/>
<path d="M28.2587 38.4034C28.2587 36.6605 29.6716 35.2475 31.4146 35.2475H45.4261C47.169 35.2475 48.582 36.6605 48.582 38.4034V38.4034C48.582 40.1464 47.169 41.5594 45.4261 41.5594H31.4146C29.6716 41.5594 28.2587 40.1464 28.2587 38.4034V38.4034Z" fill="#513ADD"/>
<path d="M53.3241 44.7153C53.3241 42.9723 54.7371 41.5594 56.4801 41.5594H60.3298C62.0728 41.5594 63.4858 42.9723 63.4858 44.7153V44.7153C63.4858 46.4583 62.0728 47.8713 60.3298 47.8713H56.4801C54.7371 47.8713 53.3241 46.4583 53.3241 44.7153V44.7153Z" fill="white"/>
<path d="M24.8715 51.0272C24.8715 49.2842 26.2844 47.8713 28.0274 47.8713H28.49C30.2329 47.8713 31.6459 49.2842 31.6459 51.0272V51.0272C31.6459 52.7702 30.2329 54.1832 28.49 54.1832H28.0274C26.2844 54.1832 24.8715 52.7702 24.8715 51.0272V51.0272Z" fill="#513ADD"/>
<path d="M21.4843 25.7797C21.4843 24.0367 22.8972 22.6238 24.6402 22.6238H25.1028C26.8457 22.6238 28.2587 24.0367 28.2587 25.7797V25.7797C28.2587 27.5227 26.8457 28.9357 25.1028 28.9357H24.6402C22.8972 28.9357 21.4843 27.5227 21.4843 25.7797V25.7797Z" fill="#513ADD"/>
<path d="M12 38.4034C12 36.6605 13.413 35.2475 15.1559 35.2475H21.7155C23.4585 35.2475 24.8714 36.6605 24.8714 38.4034V38.4034C24.8714 40.1464 23.4585 41.5594 21.7155 41.5594H15.1559C13.413 41.5594 12 40.1464 12 38.4034V38.4034Z" fill="#513ADD"/>
<path d="M28.9361 63.651C28.9361 61.908 30.3491 60.4951 32.092 60.4951H35.2644C37.0074 60.4951 38.4203 61.908 38.4203 63.651V63.651C38.4203 65.394 37.0074 66.8069 35.2644 66.8069H32.092C30.3491 66.8069 28.9361 65.394 28.9361 63.651V63.651Z" fill="#513ADD"/>
<path d="M30.291 32.0916C30.291 30.3486 31.704 28.9357 33.4469 28.9357H52.2005C53.9435 28.9357 55.3564 30.3486 55.3564 32.0916V32.0916C55.3564 33.8346 53.9435 35.2475 52.2005 35.2475H33.4469C31.704 35.2475 30.291 33.8346 30.291 32.0916V32.0916Z" fill="white"/>
<path d="M37.7429 51.0272C37.7429 49.2842 39.1559 47.8713 40.8988 47.8713H58.975C60.7179 47.8713 62.1309 49.2842 62.1309 51.0272V51.0272C62.1309 52.7702 60.7179 54.1832 58.975 54.1832H40.8988C39.1559 54.1832 37.7429 52.7702 37.7429 51.0272V51.0272Z" fill="#513ADD"/>
<path d="M42.485 63.651C42.485 61.908 43.898 60.4951 45.6409 60.4951H52.878C54.6209 60.4951 56.0339 61.908 56.0339 63.651V63.651C56.0339 65.394 54.6209 66.8069 52.878 66.8069H45.6409C43.898 66.8069 42.485 65.394 42.485 63.651V63.651Z" fill="#513ADD"/>
<path d="M18.097 44.7153C18.097 42.9723 19.51 41.5594 21.2529 41.5594H45.4261C47.169 41.5594 48.582 42.9723 48.582 44.7153V44.7153C48.582 46.4583 47.169 47.8713 45.4261 47.8713H21.2529C19.51 47.8713 18.097 46.4583 18.097 44.7153V44.7153Z" fill="white"/>
<path d="M35.0331 57.3391C35.0331 55.5961 36.4461 54.1832 38.189 54.1832H52.2005C53.9435 54.1832 55.3564 55.5961 55.3564 57.3391V57.3391C55.3564 59.0821 53.9435 60.495 52.2005 60.495H38.1891C36.4461 60.495 35.0331 59.0821 35.0331 57.3391V57.3391Z" fill="white"/>
</svg>
