<svg width="57" height="12" viewBox="0 0 57 12" fill="none" xmlns="http://www.w3.org/2000/svg">
<path d="M11.625 4.725H7.33125L6 0.5625L4.66875 4.725H0.375L3.84375 7.29375L2.53125 11.4375L6 8.86875L9.46875 11.4375L8.1375 7.275L11.625 4.725Z" fill="#FFCE31"/>
<path d="M23.25 5.1625H18.9562L17.625 1L16.2937 5.1625H12L15.4688 7.73125L14.1562 11.875L17.625 9.30625L21.0938 11.875L19.7625 7.7125L23.25 5.1625Z" fill="#FFCE31"/>
<path d="M34.25 5.1625H29.9562L28.625 1L27.2937 5.1625H23L26.4688 7.73125L25.1562 11.875L28.625 9.30625L32.0938 11.875L30.7625 7.7125L34.25 5.1625Z" fill="#FFCE31"/>
<path d="M45.25 5.1625H40.9562L39.625 1L38.2937 5.1625H34L37.4688 7.73125L36.1562 11.875L39.625 9.30625L43.0938 11.875L41.7625 7.7125L45.25 5.1625Z" fill="#FFCE31"/>
<path d="M56.25 5.1625H51.9562L50.625 1L49.2937 5.1625H45L48.4688 7.73125L47.1562 11.875L50.625 9.30625L54.0938 11.875L52.7625 7.7125L56.25 5.1625Z" fill="#FFCE31"/>
</svg>
