<svg width="50" height="50" viewBox="0 0 50 50" fill="none" xmlns="http://www.w3.org/2000/svg">
<path d="M39.0625 31.25C39.0625 39.8799 33.6299 45.3125 25 45.3125C16.3701 45.3125 10.9375 39.8799 10.9375 31.25C10.9375 21.9892 21.0186 9.4873 24.1104 5.87109C24.2204 5.74261 24.3569 5.63946 24.5105 5.56875C24.6642 5.49803 24.8313 5.46141 25.0005 5.46141C25.1696 5.46141 25.3368 5.49803 25.4904 5.56875C25.6441 5.63946 25.7806 5.74261 25.8906 5.87109C28.9814 9.4873 39.0625 21.9892 39.0625 31.25Z" stroke="#1DA1F2" stroke-width="3.125" stroke-miterlimit="10"/>
<path d="M33.5938 32.0312C33.5938 33.8961 32.853 35.6845 31.5343 37.0031C30.2157 38.3217 28.4273 39.0625 26.5625 39.0625" stroke="#1DA1F2" stroke-width="3.125" stroke-linecap="round" stroke-linejoin="round"/>
</svg>
